<svg width="169" height="37" viewBox="0 0 169 37" fill="none" xmlns="http://www.w3.org/2000/svg">
<path d="M0.615125 16.56C1.66046 16.5173 2.42846 16.2933 2.91913 15.888C3.40979 15.4613 3.65513 14.864 3.65513 14.096C3.65513 13.52 3.54846 12.3787 3.33513 10.672C3.31379 10.5013 3.24979 9.95733 3.14313 9.04C3.03646 8.10133 2.98313 7.25867 2.98313 6.512C2.98313 4.69866 3.53779 3.29066 4.64713 2.288C5.75646 1.264 7.23913 0.751999 9.09513 0.751999H11.3991V5.232H10.1511C9.46846 5.232 8.97779 5.38133 8.67913 5.68C8.38046 5.97867 8.23113 6.43733 8.23113 7.056C8.23113 7.52533 8.31646 8.592 8.48713 10.256C8.67913 12.3253 8.77513 13.68 8.77513 14.32C8.77513 15.4933 8.48713 16.464 7.91113 17.232C7.35646 18 6.50313 18.4907 5.35113 18.704V18.768C6.50313 19.0027 7.35646 19.504 7.91113 20.272C8.48713 21.0187 8.77513 21.9893 8.77513 23.184C8.77513 23.824 8.67913 25.1787 8.48713 27.248C8.31646 28.8693 8.23113 29.9253 8.23113 30.416C8.23113 31.0347 8.38046 31.4933 8.67913 31.792C8.97779 32.112 9.46846 32.272 10.1511 32.272H11.3991V36.752H9.09513C7.23913 36.752 5.75646 36.24 4.64713 35.216C3.53779 34.2133 2.98313 32.7947 2.98313 30.96C2.98313 30.2133 3.03646 29.3813 3.14313 28.464C3.24979 27.5253 3.31379 26.9707 3.33513 26.8C3.54846 25.0933 3.65513 23.952 3.65513 23.376C3.65513 22.6507 3.40979 22.0747 2.91913 21.648C2.42846 21.2 1.66046 20.9547 0.615125 20.912V16.56ZM43.5251 7.536L35.5571 30H28.7091L20.7411 7.536H26.5651L32.1331 24.496L37.7331 7.536H43.5251ZM51.2841 11.92V16.464H58.6121V20.688H51.2841V25.616H59.5721V30H45.8121V7.536H59.5721V11.92H51.2841ZM74.5806 30L69.9086 21.52H68.5966V30H63.1246V7.536H72.3086C74.0793 7.536 75.5833 7.84533 76.8206 8.464C78.0793 9.08267 79.018 9.936 79.6366 11.024C80.2553 12.0907 80.5646 13.2853 80.5646 14.608C80.5646 16.1013 80.138 17.4347 79.2846 18.608C78.4526 19.7813 77.2153 20.6133 75.5726 21.104L80.7566 30H74.5806ZM68.5966 17.648H71.9886C72.9913 17.648 73.738 17.4027 74.2286 16.912C74.7406 16.4213 74.9966 15.728 74.9966 14.832C74.9966 13.9787 74.7406 13.3067 74.2286 12.816C73.738 12.3253 72.9913 12.08 71.9886 12.08H68.5966V17.648ZM94.6236 30.224C92.5116 30.224 90.5703 29.7333 88.7996 28.752C87.0503 27.7707 85.653 26.4053 84.6076 24.656C83.5836 22.8853 83.0716 20.9013 83.0716 18.704C83.0716 16.5067 83.5836 14.5333 84.6076 12.784C85.653 11.0347 87.0503 9.66933 88.7996 8.688C90.5703 7.70667 92.5116 7.216 94.6236 7.216C96.7356 7.216 98.6663 7.70667 100.416 8.688C102.186 9.66933 103.573 11.0347 104.576 12.784C105.6 14.5333 106.112 16.5067 106.112 18.704C106.112 20.9013 105.6 22.8853 104.576 24.656C103.552 26.4053 102.165 27.7707 100.416 28.752C98.6663 29.7333 96.7356 30.224 94.6236 30.224ZM94.6236 25.232C96.4156 25.232 97.845 24.6347 98.9116 23.44C99.9996 22.2453 100.544 20.6667 100.544 18.704C100.544 16.72 99.9996 15.1413 98.9116 13.968C97.845 12.7733 96.4156 12.176 94.6236 12.176C92.8103 12.176 91.3596 12.7627 90.2716 13.936C89.205 15.1093 88.6716 16.6987 88.6716 18.704C88.6716 20.688 89.205 22.2773 90.2716 23.472C91.3596 24.6453 92.8103 25.232 94.6236 25.232ZM129.252 30H123.78L114.628 16.144V30H109.156V7.536H114.628L123.78 21.456V7.536H129.252V30ZM138.69 11.92V16.464H146.018V20.688H138.69V25.616H146.978V30H133.218V7.536H146.978V11.92H138.69ZM168.384 20.912C167.339 20.9547 166.571 21.2 166.08 21.648C165.589 22.0747 165.344 22.6507 165.344 23.376C165.344 23.952 165.451 25.0933 165.664 26.8C165.685 26.9707 165.749 27.5253 165.856 28.464C165.963 29.3813 166.016 30.2133 166.016 30.96C166.016 32.7947 165.461 34.2133 164.352 35.216C163.243 36.24 161.76 36.752 159.904 36.752H157.6V32.272H158.848C159.531 32.272 160.021 32.112 160.32 31.792C160.619 31.4933 160.768 31.0347 160.768 30.416C160.768 29.9253 160.683 28.8693 160.512 27.248C160.32 25.1787 160.224 23.824 160.224 23.184C160.224 21.9893 160.501 21.0187 161.056 20.272C161.632 19.504 162.496 19.0027 163.648 18.768V18.704C162.496 18.4907 161.632 18 161.056 17.232C160.501 16.464 160.224 15.4933 160.224 14.32C160.224 13.68 160.32 12.3253 160.512 10.256C160.683 8.592 160.768 7.52533 160.768 7.056C160.768 6.43733 160.619 5.97867 160.32 5.68C160.021 5.38133 159.531 5.232 158.848 5.232H157.6V0.751999H159.904C161.76 0.751999 163.243 1.264 164.352 2.288C165.461 3.29066 166.016 4.69866 166.016 6.512C166.016 7.25867 165.963 8.10133 165.856 9.04C165.749 9.95733 165.685 10.5013 165.664 10.672C165.451 12.3787 165.344 13.52 165.344 14.096C165.344 14.864 165.589 15.4613 166.08 15.888C166.571 16.2933 167.339 16.5173 168.384 16.56V20.912Z" fill="url(#paint0_linear_119_198)"/>
<defs>
<linearGradient id="paint0_linear_119_198" x1="21" y1="12" x2="107.633" y2="81.6137" gradientUnits="userSpaceOnUse">
<stop stop-color="#21A6F1"/>
<stop offset="1" stop-color="#CE23B4"/>
</linearGradient>
</defs>
</svg>
